HIERARCHY
ROOT joint_Root
{
	OFFSET 0.0 0.0 0.0
	CHANNELS 6 Xposition Yposition Zposition Zrotation Xrotation Yrotation 
	JOINT Hips
	{
		OFFSET -0.726466 93.3139 -2.00062
		CHANNELS 6 Xposition Yposition Zposition Zrotation Xrotation Yrotation 
		JOINT Spine
		{
			OFFSET 15.7357 0.0 0.0
			CHANNELS 6 Xposition Yposition Zposition Zrotation Xrotation Yrotation 
			JOINT Chest
			{
				OFFSET 8.98455 -0.406207 0.0
				CHANNELS 6 Xposition Yposition Zposition Zrotation Xrotation Yrotation 
				JOINT Neck
				{
					OFFSET 16.3773 0.0 0.0
					CHANNELS 6 Xposition Yposition Zposition Zrotation Xrotation Yrotation 
					JOINT Head
					{
						OFFSET 6.45672 0.0 0.0
						CHANNELS 6 Xposition Yposition Zposition Zrotation Xrotation Yrotation 
						End Site
						{
							OFFSET 0.0 0.0 0.0
						}
					}
				}
				JOINT Shoulder_L
				{
					OFFSET 12.9942 -0.242716 4.98039
					CHANNELS 6 Xposition Yposition Zposition Zrotation Xrotation Yrotation 
					JOINT UpperArm_L
					{
						OFFSET 5.34809 0.0 0.0
						CHANNELS 6 Xposition Yposition Zposition Zrotation Xrotation Yrotation 
						JOINT LowerArm_L
						{
							OFFSET 24.3286 1.87007e-05 0.0
							CHANNELS 6 Xposition Yposition Zposition Zrotation Xrotation Yrotation 
							JOINT Hand_L
							{
								OFFSET 22.2916 0.0 0.0
								CHANNELS 6 Xposition Yposition Zposition Zrotation Xrotation Yrotation 
								End Site
								{
									OFFSET 0.0 0.0 0.0
								}
							}
						}
					}
				}
				JOINT Shoulder_R
				{
					OFFSET 12.9945 -0.242716 -4.98039
					CHANNELS 6 Xposition Yposition Zposition Zrotation Xrotation Yrotation 
					JOINT UpperArm_R
					{
						OFFSET -5.34813 0.0 0.0
						CHANNELS 6 Xposition Yposition Zposition Zrotation Xrotation Yrotation 
						JOINT LowerArm_R
						{
							OFFSET -24.3289 0.000322201 0.0
							CHANNELS 6 Xposition Yposition Zposition Zrotation Xrotation Yrotation 
							JOINT Hand_R
							{
								OFFSET -22.2915 -0.000108084 0.0
								CHANNELS 6 Xposition Yposition Zposition Zrotation Xrotation Yrotation 
								End Site
								{
									OFFSET 0.0 0.0 0.0
								}
							}
						}
					}
				}
			}
		}
		JOINT UpperLeg_L
		{
			OFFSET -2.19248 -6.46944 0.0
			CHANNELS 6 Xposition Yposition Zposition Zrotation Xrotation Yrotation 
			JOINT LowerLeg_L
			{
				OFFSET 39.0811 0.0 -1.23785e-05
				CHANNELS 6 Xposition Yposition Zposition Zrotation Xrotation Yrotation 
				JOINT Foot_L
				{
					OFFSET 40.9854 0.0 -1.26872e-05
					CHANNELS 6 Xposition Yposition Zposition Zrotation Xrotation Yrotation 
					JOINT Toes_L
					{
						OFFSET 11.7543 0.0 0.0
						CHANNELS 6 Xposition Yposition Zposition Zrotation Xrotation Yrotation 
						End Site
						{
							OFFSET 0.0 0.0 0.0
						}
					}
				}
			}
		}
		JOINT UpperLeg_R
		{
			OFFSET -2.19251 6.46944 0.0
			CHANNELS 6 Xposition Yposition Zposition Zrotation Xrotation Yrotation 
			JOINT LowerLeg_R
			{
				OFFSET -39.0811 -0.00228153 -0.0401928
				CHANNELS 6 Xposition Yposition Zposition Zrotation Xrotation Yrotation 
				JOINT Foot_R
				{
					OFFSET -40.9854 0.0 0.0
					CHANNELS 6 Xposition Yposition Zposition Zrotation Xrotation Yrotation 
					JOINT Toes_R
					{
						OFFSET -11.7543 0.0 0.0
						CHANNELS 6 Xposition Yposition Zposition Zrotation Xrotation Yrotation 
						End Site
						{
							OFFSET 0.0 0.0 0.0
						}
					}
				}
			}
		}
	}
}
MOTION
Frames:	4
Frame Time:	0.0333333
0.000000 0.000000 0.000000 0.000000 0.000000 -0.000000 95.002700 90.399800 187.306000 -83.933100 46.358400 178.536000 15.735700 0.000005 -0.000001 108.832000 82.793600 -107.530000 8.984550 -0.406207 -0.000000 5.838750 4.618610 2.366270 16.377300 -0.000001 -0.000001 3.556570 7.945040 -1.484580 6.456720 -0.000001 -0.000000 2.808990 9.845900 -5.534950 12.994200 -0.242716 4.980390 -89.055300 -2.200960 -66.762000 5.348090 -0.000007 -0.000001 -72.401200 18.771100 -0.573870 24.328600 0.000019 0.000005 1.335690 4.488280 -16.592500 22.291600 -0.000001 0.000005 11.492000 5.446160 -4.504700 12.994500 -0.242716 -4.980390 88.870700 4.197090 -74.925900 -5.348130 -0.000001 -0.000004 -51.681100 15.227400 -36.470900 -24.328900 0.000322 -0.000009 1.739280 4.431010 -21.468200 -22.291500 -0.000108 -0.000004 15.212200 5.367750 -1.916500 -2.192480 -6.469440 -0.000000 173.347000 -16.423600 -22.477100 39.081100 -0.000007 -0.000012 -0.003367 0.010778 17.345500 40.985400 -0.000006 -0.000013 10.524200 -4.610290 -54.148000 11.754300 -0.000000 0.000003 -0.006397 -0.074406 -19.605300 -2.192510 6.469440 -0.000001 177.074000 24.491300 -175.760000 -39.081100 -0.002282 -0.040193 0.030770 -0.061322 24.120100 -40.985400 0.000008 0.000006 1.016970 4.323790 -71.748700 -11.754300 -0.000006 -0.000006 -0.006097 -0.071713 -19.491800
0.000000 0.000000 0.000000 0.000000 0.000000 -0.000000 97.480200 89.736700 185.769000 -82.462000 45.417900 176.863000 15.735700 0.000005 -0.000001 110.967000 82.980100 -109.427000 8.984550 -0.406207 -0.000000 5.294890 4.979570 2.846970 16.377300 -0.000001 -0.000001 3.223010 7.725880 -1.320900 6.456720 -0.000001 -0.000000 2.883550 9.424700 -5.654040 12.994200 -0.242716 4.980390 -88.910100 -2.537550 -66.746900 5.348090 -0.000007 -0.000001 -73.205500 17.026500 0.152141 24.328600 0.000019 0.000005 1.445000 5.675860 -14.311800 22.291600 -0.000001 0.000005 12.266100 5.423660 -3.728270 12.994500 -0.242716 -4.980390 88.897500 4.109740 -74.969400 -5.348130 -0.000001 -0.000004 -51.446800 14.109800 -36.916000 -24.328900 0.000322 -0.000009 1.769130 4.291210 -22.442900 -22.291500 -0.000108 -0.000004 15.924900 5.375620 -2.160070 -2.192480 -6.469440 -0.000000 172.090000 -18.080700 -22.556200 39.081100 -0.000007 -0.000012 -0.013406 0.095475 7.992560 40.985400 -0.000006 -0.000013 11.235300 -6.001200 -55.557500 11.754300 -0.000000 0.000003 -0.005973 -0.070602 -19.450200 -2.192510 6.469440 -0.000001 178.098000 24.387400 -175.009000 -39.081100 -0.002282 -0.040193 0.021495 -0.038182 25.465700 -40.985400 0.000008 0.000006 0.419938 3.717900 -72.419800 -11.754300 -0.000006 -0.000006 -0.157368 -0.251395 -20.385700
0.000000 0.000000 0.000000 0.000000 0.000000 -0.000000 100.041000 89.141700 183.859000 -81.624600 44.867100 175.804000 15.735700 0.000005 -0.000001 112.667000 83.094700 -111.102000 8.984550 -0.406207 -0.000000 4.924310 5.272960 2.901760 16.377300 -0.000001 -0.000001 2.827270 7.576300 -1.144820 6.456720 -0.000001 -0.000000 2.871650 9.123450 -5.702450 12.994200 -0.242716 4.980390 -88.888500 -2.587620 -66.745000 5.348090 -0.000007 -0.000001 -73.992500 15.727800 0.507083 24.328600 0.000019 0.000005 1.518610 7.386980 -11.652800 22.291600 -0.000001 0.000005 12.958600 5.392530 -2.700620 12.994500 -0.242716 -4.980390 88.861500 4.295270 -75.140100 -5.348130 -0.000001 -0.000004 -51.302500 13.795700 -36.874900 -24.328900 0.000322 -0.000009 1.670590 3.878300 -23.339200 -22.291500 -0.000108 -0.000004 16.461000 5.384740 -2.447550 -2.192480 -6.469440 -0.000000 172.274000 -17.602500 -23.696500 39.081100 -0.000007 -0.000012 -0.004243 0.041985 5.769570 40.985400 -0.000006 -0.000013 9.181690 -9.297930 -56.987000 11.754300 -0.000000 0.000003 -0.005886 -0.069802 -19.417500 -2.192510 6.469440 -0.000001 178.499000 23.554500 -174.585000 -39.081100 -0.002282 -0.040193 0.001187 0.004051 27.619700 -40.985400 0.000008 0.000006 -0.141275 3.266220 -71.504100 -11.754300 -0.000006 -0.000006 -2.007310 -2.158730 -23.301800
0.000000 0.000000 0.000000 0.000000 0.000000 -0.000000 102.724000 88.647300 181.439000 -81.872300 44.492500 175.732000 15.735700 0.000005 -0.000001 113.409000 83.134600 -112.174000 8.984550 -0.406207 -0.000000 4.794590 5.412770 2.241770 16.377300 -0.000001 -0.000001 2.446010 7.466400 -0.834371 6.456720 -0.000001 -0.000000 2.637930 8.807910 -5.643600 12.994200 -0.242716 4.980390 -88.938800 -2.488060 -66.891400 5.348090 -0.000007 -0.000001 -74.749800 14.866800 0.596332 24.328600 0.000019 0.000005 1.384620 8.293750 -9.512750 22.291600 -0.000001 0.000005 13.304900 5.356690 -1.577680 12.994500 -0.242716 -4.980390 88.798700 4.608170 -75.371200 -5.348130 -0.000001 -0.000004 -51.590300 14.384300 -36.122000 -24.328900 0.000322 -0.000009 1.666400 3.713510 -24.202700 -22.291500 -0.000108 -0.000004 16.960300 5.390870 -2.642810 -2.192480 -6.469440 -0.000000 171.186000 -16.128300 -24.530600 39.081100 -0.000007 -0.000012 0.004659 -0.037463 7.090660 40.985400 -0.000006 -0.000013 17.743300 -11.632000 -53.014300 11.754300 -0.000000 0.000003 -0.006295 -0.073502 -19.568400 -2.192510 6.469440 -0.000001 177.767000 22.545700 -174.058000 -39.081100 -0.002282 -0.040193 -0.039993 0.074416 30.190200 -40.985400 0.000008 0.000006 -0.720559 3.190000 -69.054600 -11.754300 -0.000006 -0.000006 -2.603720 -2.603480 -28.370000
